<svg version="1.1" xmlns="http://www.w3.org/2000/svg" xmlns:xlink="http://www.w3.org/1999/xlink" width="39.11672" height="39.11672" viewBox="0,0,39.11672,39.11672"><g transform="translate(-219.24419,-161.04037)"><g data-paper-data="{&quot;isPaintingLayer&quot;:true}" fill-rule="nonzero" stroke-linejoin="miter" stroke-miterlimit="10" stroke-dasharray="" stroke-dashoffset="0" style="mix-blend-mode: normal"><path d="M219.24419,200.15709v-39.11672h39.11672v39.11672z" fill="none" stroke="none" stroke-width="0" stroke-linecap="butt"/><path d="M255.56686,188.69913h-8.45259l-14.58072,-17.39825l-9.82174,9.82174" fill="none" stroke="#ffffff" stroke-width="1.5" stroke-linecap="round"/><path d="M229.02043,172.27614c0,-1.74086 1.41125,-3.15211 3.15211,-3.15211c1.74086,0 3.15211,1.41125 3.15211,3.15211c0,1.74086 -1.41125,3.15211 -3.15211,3.15211c-1.74086,0 -3.15211,-1.41125 -3.15211,-3.15211z" fill="#ffffff" stroke="#000000" stroke-width="1" stroke-linecap="butt"/><path d="M244.34845,188.35256c0,-1.74087 1.41125,-3.15211 3.15211,-3.15211c1.74087,0 3.15211,1.41124 3.15211,3.15211c0,1.74087 -1.41125,3.15212 -3.15211,3.15212c-1.74087,0 -3.15211,-1.41125 -3.15211,-3.15212z" fill="#ffffff" stroke="#000000" stroke-width="1" stroke-linecap="butt"/></g></g></svg>