<svg version="1.1" xmlns="http://www.w3.org/2000/svg" xmlns:xlink="http://www.w3.org/1999/xlink" width="39.11672" height="39.11672" viewBox="0,0,39.11672,39.11672"><g transform="translate(-220.44164,-160.44164)"><g data-paper-data="{&quot;isPaintingLayer&quot;:true}" fill-rule="nonzero" stroke-linejoin="miter" stroke-miterlimit="10" stroke-dasharray="" stroke-dashoffset="0" style="mix-blend-mode: normal"><path d="M220.44164,199.55836v-39.11672h39.11672v39.11672z" fill="none" stroke="none" stroke-width="0" stroke-linecap="butt"/><path d="M222.66176,192.17647v-6.35294h34.67647v6.35294z" fill="#ffffff" stroke="none" stroke-width="0" stroke-linecap="butt"/><path d="M239.25136,181.60209c0,0 -0.00145,-3.42939 -0.00145,-4.98691c0,-0.40798 0.33079,-0.73869 0.7387,-0.73869c0.40798,0 0.73864,0.33071 0.73864,0.73869c0,1.3058 0.00153,4.9829 0.00153,4.9829c0,0 0.24982,-0.24687 1.38861,-1.38573c0.28851,-0.2885 0.75617,-0.2885 1.04461,0c0.28844,0.28865 0.28851,0.75624 0,1.04468c-0.92332,0.92345 -2.65022,2.65016 -2.65022,2.65016c-0.28851,0.28844 -0.75623,0.28844 -1.0446,0c0,0 -1.49016,-1.4901 -2.62902,-2.62895c-0.28865,-0.28865 -0.28865,-0.7563 0,-1.04468c0.28845,-0.28851 0.75624,-0.28851 1.04447,0c0.92374,0.92347 1.36874,1.36852 1.36874,1.36852z" fill="#ffffff" stroke="#000000" stroke-width="0" stroke-linecap="butt"/><g><path d="M222.41177,172.86765v-6.35294h12.70588v6.35294z" fill="#ffffff" stroke="none" stroke-width="0" stroke-linecap="butt"/><path d="M244.88235,172.83824v-6.35294h12.70588v6.35294z" fill="#ffffff" stroke="none" stroke-width="0" stroke-linecap="butt"/><path d="M239.88235,166.51471v6.08824" fill="none" stroke="#ffffff" stroke-width="1" stroke-linecap="round"/><path d="M243.05882,169.69118h-6.35294" fill="none" stroke="#ffffff" stroke-width="1" stroke-linecap="round"/></g></g></g></svg>