<svg version="1.1" xmlns="http://www.w3.org/2000/svg" xmlns:xlink="http://www.w3.org/1999/xlink" width="39.11672" height="39.11672" viewBox="0,0,39.11672,39.11672"><g transform="translate(-220.44164,-160.44164)"><g data-paper-data="{&quot;isPaintingLayer&quot;:true}" fill-rule="nonzero" stroke="#ffffff" stroke-linejoin="miter" stroke-miterlimit="10" stroke-dasharray="" stroke-dashoffset="0" style="mix-blend-mode: normal"><path d="M220.44164,199.55836v-39.11672h39.11672v39.11672z" fill="none" stroke-width="0" stroke-linecap="butt"/><g fill="#ffffff" stroke-width="1" stroke-linecap="butt"><path d="M239.09345,185.80151c0.07454,0 0.14602,0.02963 0.1987,0.08237l4.36923,4.36853c0.05274,0.05268 0.08237,0.12416 0.08237,0.1987c0,0.07454 -0.02963,0.14602 -0.08237,0.1987l-2.18496,2.18426c-0.43865,0.43836 -1.14953,0.43836 -1.58817,0l-3.17775,-3.17705c-0.21073,-0.21068 -0.32912,-0.49646 -0.32912,-0.79444c0,-0.29798 0.11839,-0.58376 0.32912,-0.79444l2.18426,-2.18426c0.05268,-0.05274 0.12416,-0.08237 0.1987,-0.08237z"/><path d="M229.56161,176.26896c0.07454,0 0.14602,0.02963 0.1987,0.08237l4.36853,4.36923c0.05274,0.05268 0.08237,0.12416 0.08237,0.1987c0,0.07454 -0.02963,0.14602 -0.08237,0.1987l-2.18426,2.18426c-0.21068,0.21073 -0.49646,0.32912 -0.79444,0.32912c-0.29798,0 -0.58376,-0.11839 -0.79444,-0.32912l-3.17705,-3.17775c-0.43836,-0.43865 -0.43836,-1.14953 0,-1.58817l2.18426,-2.18497c0.05268,-0.05274 0.12416,-0.08237 0.1987,-0.08237z"/><path d="M250.14607,184.16301l-4.49912,4.49912c-0.05268,0.05274 -0.12416,0.08237 -0.1987,0.08237c-0.07454,0 -0.14602,-0.02963 -0.1987,-0.08237l-4.36853,-4.36923c-0.05274,-0.05268 -0.08237,-0.12416 -0.08237,-0.1987c0,-0.07454 0.02963,-0.14602 0.08237,-0.1987l4.5244,-4.5258c1.30663,-1.30663 1.3649,-3.43542 0.08004,-4.76381c-0.62803,-0.65001 -1.49083,-1.02052 -2.39464,-1.02831c-0.90381,-0.00779 -1.77287,0.34779 -2.41201,0.98689l-4.56371,4.56722c-0.05268,0.05274 -0.12416,0.08237 -0.1987,0.08237c-0.07454,0 -0.14602,-0.02963 -0.1987,-0.08237l-4.36923,-4.36853c-0.05274,-0.05268 -0.08237,-0.12416 -0.08237,-0.1987c0,-0.07454 0.02963,-0.14602 0.08237,-0.1987l4.56793,-4.56722c1.8968,-1.89687 4.46969,-2.96217 7.15222,-2.96138c2.68253,0.00079 5.25478,1.06761 7.15047,2.96559c3.95499,3.9599 3.88477,10.40456 -0.07302,14.36025z"/></g><path d="M227.15,167.15l25.7,25.7" fill="#ffffff" stroke-width="2" stroke-linecap="round"/><path d="M227.15,192.85l25.7,-25.7" data-paper-data="{&quot;index&quot;:null}" fill="#ffffff" stroke-width="2" stroke-linecap="round"/></g></g></svg>