<svg version="1.1" xmlns="http://www.w3.org/2000/svg" xmlns:xlink="http://www.w3.org/1999/xlink" width="27.8" height="27.8" viewBox="0,0,27.8,27.8"><g transform="translate(-226.1,-166.1)"><g data-paper-data="{&quot;isPaintingLayer&quot;:true}" fill="none" fill-rule="nonzero" stroke-linejoin="miter" stroke-miterlimit="10" stroke-dasharray="" stroke-dashoffset="0" style="mix-blend-mode: normal"><g stroke="#ffffff" stroke-width="4"><path d="M228.1,180c0,-6.57219 5.32781,-11.9 11.9,-11.9c6.57219,0 11.9,5.32781 11.9,11.9c0,6.57219 -5.32781,11.9 -11.9,11.9c-6.57219,0 -11.9,-5.32781 -11.9,-11.9z" stroke-linecap="butt"/><path d="M232,172l16,16" stroke-linecap="round"/></g><path d="M228.1,180c0,-6.57219 5.32781,-11.9 11.9,-11.9c6.57219,0 11.9,5.32781 11.9,11.9c0,6.57219 -5.32781,11.9 -11.9,11.9c-6.57219,0 -11.9,-5.32781 -11.9,-11.9z" stroke="#000000" stroke-width="2.5" stroke-linecap="butt"/><path d="M232,172l16,16" stroke="#000000" stroke-width="2.5" stroke-linecap="round"/></g></g></svg>