<svg version="1.1" xmlns="http://www.w3.org/2000/svg" xmlns:xlink="http://www.w3.org/1999/xlink" width="39.11672" height="39.11672" viewBox="0,0,39.11672,39.11672"><g transform="translate(-220.44164,-160.44164)"><g data-paper-data="{&quot;isPaintingLayer&quot;:true}" fill="none" fill-rule="nonzero" stroke="#ffffff" stroke-linecap="butt" stroke-linejoin="miter" stroke-miterlimit="10" stroke-dasharray="" stroke-dashoffset="0" style="mix-blend-mode: normal"><path d="M220.44164,199.55836v-39.11672h39.11672v39.11672z" stroke-width="0"/><path d="M223.9,179.8c0,-5.57808 4.52192,-10.1 10.1,-10.1c5.57808,0 10.1,4.52192 10.1,10.1c0,5.57808 -4.52192,10.1 -10.1,10.1c-5.57808,0 -10.1,-4.52192 -10.1,-10.1z" stroke-width="2"/><path d="M236.1,179.8c0,-5.57808 4.52192,-10.1 10.1,-10.1c5.57808,0 10.1,4.52193 10.1,10.1c0,5.57808 -4.52192,10.1 -10.1,10.1c-5.57808,0 -10.1,-4.52192 -10.1,-10.1z" stroke-width="2"/></g></g></svg>