<svg version="1.1" xmlns="http://www.w3.org/2000/svg" xmlns:xlink="http://www.w3.org/1999/xlink" width="39.11672" height="39.11672" viewBox="0,0,39.11672,39.11672"><defs><radialGradient cx="239.9769" cy="183.12428" r="11.95952" gradientUnits="userSpaceOnUse" id="color-1"><stop offset="0" stop-color="#ffffff" stop-opacity="0.53465"/><stop offset="1" stop-color="#ffffff" stop-opacity="0"/></radialGradient><radialGradient cx="240.2534" cy="186.11416" r="7.26114" gradientUnits="userSpaceOnUse" id="color-2"><stop offset="0" stop-color="#ffffff" stop-opacity="0.53465"/><stop offset="1" stop-color="#ffffff" stop-opacity="0"/></radialGradient><radialGradient cx="240" cy="170.2894" r="11.98262" gradientUnits="userSpaceOnUse" id="color-3"><stop offset="0" stop-color="#ffffff" stop-opacity="0.53465"/><stop offset="1" stop-color="#ffffff" stop-opacity="0"/></radialGradient></defs><g transform="translate(-220.44164,-160.44164)"><g data-paper-data="{&quot;isPaintingLayer&quot;:true}" fill="none" fill-rule="nonzero" stroke-linejoin="miter" stroke-miterlimit="10" stroke-dasharray="" stroke-dashoffset="0" style="mix-blend-mode: normal"><path d="M220.44164,199.55836v-39.11672h39.11672v39.11672z" stroke="#ffffff" stroke-width="0" stroke-linecap="butt"/><g stroke="#ffffff" stroke-width="2" stroke-linecap="round"><g><path d="M228.04048,186.61895l12.21398,6.75635l11.60328,-6.60104l0.10178,-13.59037l-11.55239,5.39732l-12.36666,-5.70796z"/><path d="M240.27649,178.85302v14.52228"/><path d="M228.04048,171.80675l12.27636,-3.51539l11.68888,3.99608"/></g></g><g stroke-width="5" stroke-linecap="round"><g><path d="M228.01738,186.61895l12.21399,6.75635l11.60328,-6.60103l0.10178,-13.59037l-11.55239,5.39732l-12.36666,-5.70795z" stroke="url(#color-1)"/><path d="M240.2534,178.85302v14.52228" stroke="url(#color-2)"/><path d="M228.01738,171.80675l12.27636,-3.51539l11.68889,3.99608" stroke="url(#color-3)"/></g></g></g></g></svg>