<svg version="1.1" xmlns="http://www.w3.org/2000/svg" xmlns:xlink="http://www.w3.org/1999/xlink" width="29.11697" height="15.26079" viewBox="0,0,29.11697,15.26079"><g transform="translate(-225.27439,-172.36947)"><g data-paper-data="{&quot;isPaintingLayer&quot;:true}" fill="#ffffff" fill-rule="nonzero" stroke="#000000" stroke-width="2" stroke-linecap="butt" stroke-linejoin="miter" stroke-miterlimit="10" stroke-dasharray="" stroke-dashoffset="0" style="mix-blend-mode: normal"><path d="M248.85048,181.56988c0,0 -7.19127,0.00304 -10.45731,0.00304c-0.85553,0 -1.54901,-0.69364 -1.54901,-1.54901c0,-0.85553 0.69348,-1.54889 1.54901,-1.54889c2.73821,0 10.4489,-0.0032 10.4489,-0.0032c0,0 -0.51767,-0.52388 -2.90581,-2.91186c-0.60496,-0.60499 -0.60496,-1.58565 0,-2.19049c0.60528,-0.60484 1.58581,-0.60499 2.19065,0c1.93644,1.93616 5.55725,5.55738 5.55725,5.55738c0.60484,0.60499 0.60484,1.58578 0,2.19049c0,0 -3.12466,3.12479 -5.51277,5.51293c-0.60528,0.60528 -1.58593,0.60528 -2.19065,0c-0.60499,-0.60487 -0.60499,-1.58581 0,-2.19021c1.93647,-1.93704 2.86973,-2.87017 2.86973,-2.87017z"/><path d="M233.2741,184.44005c0.54973,0.6044 0.54973,1.58534 0,2.19021c-0.54947,0.60528 -1.44055,0.60528 -1.99053,0c-2.16995,-2.38814 -5.00918,-5.51293 -5.00918,-5.51293c-0.54959,-0.60471 -0.54959,-1.5855 0,-2.19049c0,0 3.29005,-3.62122 5.04959,-5.55738c0.54959,-0.60499 1.44055,-0.60484 1.99053,0c0.5497,0.60484 0.5497,1.5855 0,2.19049c-2.16998,2.38798 -2.64036,2.91186 -2.64036,2.91186c0,0 6.13927,0.03417 8.96491,0.03453c0.19295,0.00003 0.11349,1.39755 0.11349,1.39755c0,0 0.10915,1.66901 -0.05647,1.669c-3.13461,-0.00028 -9.02957,-0.00302 -9.02957,-0.00302c0,0 0.84801,0.93314 2.60758,2.87017z"/></g></g></svg>