<svg version="1.1" xmlns="http://www.w3.org/2000/svg" xmlns:xlink="http://www.w3.org/1999/xlink" width="39.11672" height="39.11672" viewBox="0,0,39.11672,39.11672"><g transform="translate(-220.44164,-160.44164)"><g data-paper-data="{&quot;isPaintingLayer&quot;:true}" fill="none" fill-rule="nonzero" stroke-miterlimit="10" stroke-dasharray="" stroke-dashoffset="0" style="mix-blend-mode: normal"><path d="M220.44164,199.55836v-39.11672h39.11672v39.11672z" stroke="none" stroke-width="0" stroke-linecap="butt" stroke-linejoin="miter"/><path d="M230.84729,185.42857c-1.85384,-1.31765 -3.06157,-3.4713 -3.06157,-5.90452c0,-3.32394 2.44286,-6.39459 6.10714,-6.98834c1.14942,-2.73278 3.86976,-4.75 7.04262,-4.75c4.06424,0 7.38611,3.15198 7.61452,7.125c2.15691,0.94305 3.66429,3.25755 3.66429,5.76365c0,2.11891 -1.07757,3.98593 -2.71429,5.08223M240.00001,192.21429" stroke="#ffffff" stroke-width="2.5" stroke-linecap="round" stroke-linejoin="round"/><path d="M240.00001,178.64286v13.57143M240.00001,178.64286l-4.07143,4.07143M240.00001,178.64286l4.07143,4.07143" data-paper-data="{&quot;index&quot;:null}" stroke="#ffffff" stroke-width="2.5" stroke-linecap="round" stroke-linejoin="round"/></g></g></svg>